<?xml version="1.0" encoding="UTF-8" standalone="no"?>
<svg
   xmlns:dc="http://purl.org/dc/elements/1.1/"
   xmlns:cc="http://creativecommons.org/ns#"
   xmlns:rdf="http://www.w3.org/1999/02/22-rdf-syntax-ns#"
   xmlns:svg="http://www.w3.org/2000/svg"
   xmlns="http://www.w3.org/2000/svg"
   xmlns:sodipodi="http://sodipodi.sourceforge.net/DTD/sodipodi-0.dtd"
   xmlns:inkscape="http://www.inkscape.org/namespaces/inkscape"
   aria-hidden="true"
   focusable="false"
   width="1em"
   height="1em"
   style="-ms-transform: rotate(360deg); -webkit-transform: rotate(360deg); transform: rotate(360deg);"
   preserveAspectRatio="xMidYMid meet"
   viewBox="0 0 24 24"
   version="1.1"
   id="svg827"
   sodipodi:docname="mdi-settings.svg"
   inkscape:version="0.92.4 (5da689c313, 2019-01-14)">
  <metadata
     id="metadata833">
    <rdf:RDF>
      <cc:Work
         rdf:about="">
        <dc:format>image/svg+xml</dc:format>
        <dc:type
           rdf:resource="http://purl.org/dc/dcmitype/StillImage" />
      </cc:Work>
    </rdf:RDF>
  </metadata>
  <defs
     id="defs831" />
  <sodipodi:namedview
     pagecolor="#ffffff"
     bordercolor="#666666"
     borderopacity="1"
     objecttolerance="10"
     gridtolerance="10"
     guidetolerance="10"
     inkscape:pageopacity="0"
     inkscape:pageshadow="2"
     inkscape:window-width="3840"
     inkscape:window-height="2035"
     id="namedview829"
     showgrid="false"
     inkscape:zoom="73.25"
     inkscape:cx="12.191126"
     inkscape:cy="12"
     inkscape:window-x="-13"
     inkscape:window-y="-13"
     inkscape:window-maximized="1"
     inkscape:current-layer="svg827" />
  <path
     d="m 9.7293316,13.5 a 3.5,3.5 0 0 1 -3.5,-3.5 3.5,3.5 0 0 1 3.5,-3.5 3.5,3.5 0 0 1 3.5000004,3.5 3.5,3.5 0 0 1 -3.5000004,3.5 m 7.4300004,-2.53 c 0.04,-0.32 0.07,-0.64 0.07,-0.97 0,-0.33 -0.03,-0.66 -0.07,-1 l 2.11,-1.63 c 0.19,-0.15 0.24,-0.42 0.12,-0.64 l -2,-3.46 c -0.12,-0.22 -0.39,-0.31 -0.61,-0.22 l -2.49,1 c -0.52,-0.39 -1.06,-0.73 -1.69,-0.98 l -0.37,-2.65 a 0.506,0.506 0 0 0 -0.5,-0.42 H 7.7293316 c -0.25,0 -0.46,0.18 -0.5,0.42 l -0.37,2.65 c -0.63,0.25 -1.17,0.59 -1.69,0.98 l -2.49,-1 c -0.22,-0.09 -0.49,0 -0.61,0.22 l -2,3.46 c -0.13,0.22 -0.0699999961,0.49 0.12,0.64 l 2.11,1.63 c -0.04,0.34 -0.07,0.67 -0.07,1 0,0.33 0.03,0.65 0.07,0.97 l -2.11,1.66 c -0.18999999607,0.15 -0.25,0.42 -0.12,0.64 l 2,3.46 c 0.12,0.22 0.39,0.3 0.61,0.22 l 2.49,-1.01 c 0.52,0.4 1.06,0.74 1.69,0.99 l 0.37,2.65 c 0.04,0.24 0.25,0.42 0.5,0.42 h 4.0000004 c 0.25,0 0.46,-0.18 0.5,-0.42 l 0.37,-2.65 c 0.63,-0.26 1.17,-0.59 1.69,-0.99 l 2.49,1.01 c 0.22,0.08 0.49,0 0.61,-0.22 l 2,-3.46 c 0.12,-0.22 0.07,-0.49 -0.12,-0.64 z"
     id="path825"
     inkscape:connector-curvature="0"
     style="fill:#626262" />
</svg>
