<?xml version="1.0" encoding="UTF-8" standalone="no"?>
<svg
   xmlns:dc="http://purl.org/dc/elements/1.1/"
   xmlns:cc="http://creativecommons.org/ns#"
   xmlns:rdf="http://www.w3.org/1999/02/22-rdf-syntax-ns#"
   xmlns:svg="http://www.w3.org/2000/svg"
   xmlns="http://www.w3.org/2000/svg"
   xmlns:sodipodi="http://sodipodi.sourceforge.net/DTD/sodipodi-0.dtd"
   xmlns:inkscape="http://www.inkscape.org/namespaces/inkscape"
   aria-hidden="true"
   focusable="false"
   width="1em"
   height="1em"
   style="-ms-transform: rotate(360deg); -webkit-transform: rotate(360deg); transform: rotate(360deg);"
   preserveAspectRatio="xMidYMid meet"
   viewBox="0 0 24 24"
   version="1.1"
   id="svg11298"
   sodipodi:docname="mdi-refresh.svg"
   inkscape:version="0.92.4 (5da689c313, 2019-01-14)">
  <metadata
     id="metadata11304">
    <rdf:RDF>
      <cc:Work
         rdf:about="">
        <dc:format>image/svg+xml</dc:format>
        <dc:type
           rdf:resource="http://purl.org/dc/dcmitype/StillImage" />
      </cc:Work>
    </rdf:RDF>
  </metadata>
  <defs
     id="defs11302" />
  <sodipodi:namedview
     pagecolor="#ffffff"
     bordercolor="#666666"
     borderopacity="1"
     objecttolerance="10"
     gridtolerance="10"
     guidetolerance="10"
     inkscape:pageopacity="0"
     inkscape:pageshadow="2"
     inkscape:window-width="2406"
     inkscape:window-height="1571"
     id="namedview11300"
     showgrid="false"
     inkscape:zoom="9.8333333"
     inkscape:cx="13.423729"
     inkscape:cy="12"
     inkscape:window-x="0"
     inkscape:window-y="0"
     inkscape:window-maximized="0"
     inkscape:current-layer="svg11298" />
  <path
     d="M 11.090625,3.409375 A 6.465875,6.465875 0 0 0 6.5,1.5 6.5,6.5 0 0 0 0,8 6.5,6.5 0 0 0 6.5,14.5 c 3.030625,0 5.5575,-2.071875 6.280625,-4.875 h -1.69 A 4.866875,4.866875 0 0 1 6.5,12.875 4.875,4.875 0 0 1 1.625,8 4.875,4.875 0 0 1 6.5,3.125 c 1.34875,0 2.55125,0.560625 3.42875,1.44625 L 7.3125,7.1875 H 13 V 1.5 Z"
     id="path11296"
     inkscape:connector-curvature="0"
     style="fill:#626262;stroke-width:0.8125" />
</svg>
